<?xml version="1.0" encoding="utf-8"?>
<!-- Generator: Adobe Illustrator 23.0.3, SVG Export Plug-In . SVG Version: 6.00 Build 0)  -->
<svg version="1.1" id="Layer_1" xmlns="http://www.w3.org/2000/svg" xmlns:xlink="http://www.w3.org/1999/xlink" x="0px" y="0px"
	 viewBox="0 0 150 95.02" style="enable-background:new 0 0 150 95.02;" xml:space="preserve">
<style type="text/css">
	.st0{fill-rule:evenodd;clip-rule:evenodd;fill:#5B6670;}
	.st1{fill-rule:evenodd;clip-rule:evenodd;fill:#E43D30;}
	.st2{fill-rule:evenodd;clip-rule:evenodd;fill:#FFFFFF;}
</style>
<rect class="st0" width="150" height="95.02"/>
<path class="st1" d="M68.72,36.68c-0.53,0-1.04,0.08-1.53,0.22c-0.02,0.01-0.04,0.01-0.06,0.02c-0.13,0.04,0.27,0.02,0.61,0.02
	c3.23,0,5.85,2.61,5.85,5.84c0,3.23-2.62,5.85-5.85,5.85c-0.19,0-0.38-0.02-0.56-0.04c-0.14-0.02-0.16,0.02-0.03,0.06
	c0.5,0.14,1.02,0.23,1.56,0.23c3.37,0,6.1-2.73,6.1-6.1C74.82,39.41,72.09,36.68,68.72,36.68 M61.1,42.85
	c0-4.04,3.27-7.31,7.31-7.31c0.19,0,0.38,0.01,0.56,0.04c0.19,0.02,0.24-0.03,0.08-0.07c-0.62-0.17-1.27-0.28-1.94-0.28
	c-4.21,0-7.62,3.41-7.62,7.63c0,4.21,3.41,7.62,7.62,7.62c0.64,0,1.25-0.1,1.84-0.25c0.19-0.05,0.21-0.12,0.03-0.1
	c-0.19,0.02-0.38,0.03-0.56,0.03C64.37,50.16,61.1,46.89,61.1,42.85"/>
<g>
	<path class="st2" d="M127.8,57.24c-0.98-0.21-1.21-0.45-1.21-0.87c0-0.41,0.37-0.73,0.95-0.73c0.46,0,0.87,0.14,1.29,0.48
		l0.29-0.39c-0.45-0.36-0.92-0.55-1.57-0.55c-0.85,0-1.47,0.51-1.47,1.23c0,0.74,0.47,1.07,1.5,1.29c0.94,0.2,1.16,0.43,1.16,0.85
		c0,0.45-0.39,0.77-1,0.77c-0.62,0-1.06-0.21-1.53-0.63l-0.31,0.37c0.54,0.48,1.12,0.71,1.82,0.71c0.89,0,1.52-0.5,1.52-1.27
		C129.25,57.82,128.8,57.46,127.8,57.24 M122.29,55.72h1.5v-0.46h-3.51v0.47l1.5,0v4h0.51V55.72z M117.22,58.83l-2.81-3.58h-0.47
		v4.46h0.49v-3.66l2.88,3.66h0.4v-4.46h-0.49V58.83z M110.79,55.25h-3.23v4.46h3.26v-0.46h-2.75V57.7h2.44v-0.46h-2.44v-1.53h2.72
		V55.25z M103.76,56.1v3.61h0.51v-4.46h-0.51l-1.63,2.43l-1.63-2.43h-0.51v4.46h0.49v-3.61l1.63,2.39h0.03L103.76,56.1z
		 M96.13,58.83l-2.81-3.58h-0.47v4.46h0.49v-3.66l2.88,3.66h0.4v-4.46h-0.49V58.83z M87.71,55.64c1.02,0,1.76,0.83,1.76,1.85
		c0,1.02-0.73,1.84-1.75,1.84c-1.02,0-1.76-0.83-1.76-1.85C85.97,56.46,86.69,55.64,87.71,55.64 M87.71,59.79
		c1.36,0,2.29-1.08,2.29-2.31c0-1.24-0.91-2.3-2.27-2.3c-1.36,0-2.29,1.08-2.29,2.31C85.44,58.73,86.36,59.79,87.71,59.79
		 M81.13,55.72c0.72,0,1.14,0.33,1.14,0.89c0,0.58-0.48,0.92-1.15,0.92h-1.37v-1.81L81.13,55.72L81.13,55.72z M82.94,59.71
		l-1.37-1.82c0.7-0.13,1.21-0.56,1.21-1.31c0-0.8-0.63-1.33-1.62-1.33h-1.92v4.46h0.5v-1.73h1.28l1.29,1.73H82.94z M75.77,55.25
		h-0.5v4.46h0.5V55.25z M70.42,59.1l-1.59-3.84h-0.56l1.92,4.49h0.44l1.92-4.49h-0.54L70.42,59.1z M65.11,58.83l-2.81-3.58h-0.47
		v4.46h0.49v-3.66l2.88,3.66h0.4v-4.46h-0.49V58.83z M58.68,55.25h-3.23v4.46h3.26v-0.46h-2.75V57.7h2.43v-0.46h-2.43v-1.53h2.72
		V55.25z M47.75,57.24c-0.98-0.21-1.21-0.45-1.21-0.87c0-0.41,0.37-0.73,0.95-0.73c0.46,0,0.87,0.14,1.29,0.48l0.3-0.39
		c-0.45-0.36-0.92-0.55-1.57-0.55c-0.85,0-1.47,0.51-1.47,1.23c0,0.74,0.47,1.07,1.5,1.29c0.93,0.2,1.16,0.43,1.16,0.85
		c0,0.45-0.39,0.77-0.99,0.77c-0.62,0-1.06-0.21-1.53-0.63l-0.31,0.37c0.54,0.48,1.12,0.71,1.82,0.71c0.89,0,1.52-0.5,1.52-1.27
		C49.2,57.82,48.74,57.46,47.75,57.24 M43.12,55.25H39.9v4.46h3.26v-0.46H40.4V57.7h2.44v-0.46H40.4v-1.53h2.72V55.25z M33.98,59.71
		h3.01v-0.46h-2.51v-4h-0.5L33.98,59.71L33.98,59.71z M29.86,58.08h-2.03l1.02-2.27L29.86,58.08z M29.09,55.22h-0.47l-2.03,4.49
		h0.52l0.53-1.18h2.43l0.52,1.18h0.54L29.09,55.22z M22.79,57.24c-0.98-0.21-1.21-0.45-1.21-0.87c0-0.41,0.37-0.73,0.95-0.73
		c0.46,0,0.87,0.14,1.29,0.48l0.29-0.39c-0.45-0.36-0.92-0.55-1.57-0.55c-0.85,0-1.47,0.51-1.47,1.23c0,0.74,0.47,1.07,1.5,1.29
		c0.94,0.2,1.16,0.43,1.16,0.85c0,0.45-0.39,0.77-0.99,0.77c-0.62,0-1.06-0.21-1.53-0.63l-0.31,0.37c0.54,0.48,1.12,0.71,1.82,0.71
		c0.89,0,1.53-0.5,1.53-1.27C24.25,57.82,23.79,57.46,22.79,57.24 M128.65,44l4.5-6.52h-1.42l-3.68,5.41l-3.65-5.41h-1.48l4.5,6.54
		v4.28h1.24V44z M114.71,38.6c1.75,0,2.77,0.8,2.77,2.15c0,1.41-1.16,2.24-2.78,2.24h-3.32V38.6H114.71z M119.1,48.29l-3.32-4.42
		c1.7-0.31,2.94-1.36,2.94-3.17c0-1.95-1.53-3.23-3.91-3.23h-4.65v10.82h1.22v-4.2h3.09l3.14,4.2H119.1z M101.87,44.33h-4.93
		l2.47-5.52L101.87,44.33z M100,37.4h-1.14l-4.93,10.89h1.25l1.28-2.86h5.89l1.27,2.86h1.31L100,37.4z M87.52,46.14l-6.82-8.67
		h-1.14v10.82h1.19v-8.87l6.99,8.87h0.97V37.47h-1.19L87.52,46.14L87.52,46.14z M54.76,37.47h-1.22v10.82h1.22V37.47z M43.93,42.3
		c-2.38-0.51-2.94-1.08-2.94-2.12c0-0.99,0.9-1.76,2.3-1.76c1.11,0,2.12,0.35,3.12,1.17l0.71-0.94c-1.1-0.88-2.23-1.33-3.8-1.33
		c-2.06,0-3.55,1.23-3.55,2.96c0,1.79,1.14,2.6,3.63,3.14c2.27,0.48,2.81,1.05,2.81,2.07c0,1.1-0.96,1.86-2.41,1.86
		c-1.5,0-2.58-0.51-3.71-1.53l-0.76,0.9c1.3,1.16,2.7,1.73,4.42,1.73c2.15,0,3.69-1.2,3.69-3.07C47.45,43.7,46.34,42.82,43.93,42.3
		 M33.79,37.47h-1.22v10.82h1.22V37.47z M25.93,37.47h1.31l-4.65,10.9H21.5l-4.65-10.9h1.36l3.85,9.32L25.93,37.47z"/>
</g>
</svg>
